<?xml version="1.0" encoding="utf-8"?>
<!-- Generator: Adobe Illustrator 27.0.1, SVG Export Plug-In . SVG Version: 6.00 Build 0)  -->
<svg version="1.1" id="Heart_Clipart" xmlns="http://www.w3.org/2000/svg" xmlns:xlink="http://www.w3.org/1999/xlink" x="0px"
	 y="0px" viewBox="0 0 864 864" style="enable-background:new 0 0 864 864;" xml:space="preserve">
<style type="text/css">
	.st0{fill:#CC111E;}
</style>
<path class="st0" d="M797.39,324.19c-49.65-50.15-138.8-50.71-194.29-15.11c-11.75-64.86-72.92-129.73-143.46-131.89
	c-36.06-1.1-70.39,15.36-95.48,39.4c-28.46,27.26-45.49,63.36-52.71,102.06c-4.14-0.57-8.34-0.85-12.58-0.77
	c-50.27,0.94-94.4,46.64-103.32,92.76C156.32,384.81,92.8,384.46,57,419.77c-18.3,18.05-26.69,43.85-26.63,68.61
	c0.12,48.65,30.73,92.69,71.17,120.37c57.46,39.31,131.75,53.02,201.94,58.11c26.29-31.15,51.47-65.3,70.34-101.86
	c21.85,35.91,47.28,69.98,73.56,101.86c98.58-5.97,203.08-23.97,284.36-78.19c57.22-38.17,100.91-99.48,101.88-167.75
	C834.12,386.18,822.78,349.84,797.39,324.19z M289.99,634.83c-55.39-4.01-114.02-14.83-159.37-45.86
	c-31.92-21.84-56.08-56.6-56.17-95c-0.05-19.54,6.57-39.9,21.02-54.14c28.25-27.87,78.38-27.59,109.34-7.2
	c7.04-36.39,41.87-72.46,81.54-73.2c7.22-0.14,14.3,0.99,21.06,3.1c-0.04,14.37,1.11,28.78,3.41,42.94
	c7.21,44.22,23.32,86.83,44.7,127.35C340.33,569.89,315.84,604.2,289.99,634.83z M771.66,428.05
	c-0.77,53.88-35.24,102.26-80.4,132.38c-64.15,42.79-146.61,57-224.41,61.71c-49.57-60.15-95.36-130.18-107.77-206.29
	c-8.72-53.58,3.18-111.78,42.09-149.06c19.8-18.97,46.89-31.96,75.35-31.09c55.67,1.71,103.94,52.89,113.21,104.08
	c43.79-28.09,114.14-27.65,153.33,11.93C763.1,371.95,772.05,400.63,771.66,428.05z"/>
</svg>
